<?xml version="1.0" encoding="UTF-8"?> <!-- Generator: Adobe Illustrator 21.1.0, SVG Export Plug-In . SVG Version: 6.00 Build 0) --> <svg xmlns="http://www.w3.org/2000/svg" xmlns:xlink="http://www.w3.org/1999/xlink" id="Capa_1" x="0px" y="0px" viewBox="0 0 496.5 496.5" style="enable-background:new 0 0 496.5 496.5;" xml:space="preserve"> <style type="text/css"> .st0{opacity:0.5;fill:#7A6C9C;} .st1{fill:#FFFFFF;} .st2{fill:#E1E6E9;} .st3{fill:#193651;} .st4{fill:#FDBF5E;} .st5{fill:#CFD0D1;} .st6{fill:#2EA2DB;} </style> <circle class="st0" cx="248.2" cy="248.2" r="248.2"></circle> <rect x="229.4" y="41.6" class="st1" width="210.5" height="133.4"></rect> <polygon class="st2" points="301,118.7 290.9,127.2 280.8,118.7 280.8,113.3 301,113.3 "></polygon> <circle class="st3" cx="290.9" cy="89.2" r="24.8"></circle> <path class="st4" d="M271.5,104V92.3c0,0,19.4,6.2,28.7-10.9c0,0,2.3,7.8,10.9,9.3V104c0,0-3.9,15.5-19.4,15.5 C290.9,119.5,275.4,120.2,271.5,104z"></path> <path class="st2" d="M333.6,157.5v-10.1c0-7.8-4.7-14.7-11.6-18.6c-7.8-3.1-15.5-4.7-15.5-4.7l-14.7,3.1l-14.7-3.1 c0,0-8.5,1.6-16.3,4.7c-7,3.1-11.6,10.1-11.6,18.6c0,3.9,0,2.3,0,10.9h84.6L333.6,157.5L333.6,157.5z"></path> <g> <polygon class="st5" points="280.8,118.7 276.9,124.1 283.9,138.9 290.9,127.2 "></polygon> <polygon class="st5" points="301,118.7 305.6,124.1 298.7,138.9 290.9,127.2 "></polygon> </g> <rect x="343.7" y="93.9" class="st3" width="15.5" height="14"></rect> <rect x="373.1" y="93.9" class="st3" width="15.5" height="14"></rect> <g> <rect x="402.6" y="93.9" class="st3" width="15.5" height="14"></rect> <rect x="344.4" y="65.2" class="st3" width="72.9" height="15.5"></rect> </g> <path class="st1" d="M318.1,444.5H7.8l0,0c0,24.8,20.2,44.2,44.2,44.2h221.9C298.7,488.7,318.1,469.3,318.1,444.5L318.1,444.5z"></path> <path class="st3" d="M273.8,496.5H52c-28.7,0-52-23.3-52-52c0-4.7,3.1-7.8,7.8-7.8h310.3c4.7,0,7.8,3.1,7.8,7.8 C325.8,473.2,302.5,496.5,273.8,496.5z M17.1,452.3C20.2,468.6,34.9,481,52,481h221.9c17.1,0,31.8-12.4,35.7-28.7H17.1z"></path> <rect x="30.3" y="263" class="st6" width="266.1" height="182.3"></rect> <path class="st3" d="M296.3,452.3H30.3c-4.7,0-7.8-3.1-7.8-7.8V263c0-4.7,3.1-7.8,7.8-7.8h266.1c4.7,0,7.8,3.1,7.8,7.8v182.3 C304.1,449.2,300.2,452.3,296.3,452.3z M38,436.8h250.6v-166H38V436.8z"></path> <rect x="62.3" y="294.7" class="st1" width="201.7" height="117.9"></rect> <polygon class="st2" points="130.3,373.9 120.2,382.4 110.2,373.9 110.2,368.5 130.3,368.5 "></polygon> <circle class="st3" cx="120.2" cy="343.7" r="24.8"></circle> <path class="st4" d="M100.8,359.2v-11.6c0,0,19.4,6.2,28.7-10.9c0,0,2.3,7.8,10.9,9.3v13.2c0,0-3.9,15.5-19.4,15.5 C120.2,374.7,104.7,375.5,100.8,359.2z"></path> <path class="st2" d="M162.9,412.7v-10.9c0-7.8-4.7-14.7-11.6-18.6c-7.8-3.1-15.5-4.7-15.5-4.7l-14.7,3.1l-14-3.1 c0,0-8.5,1.6-16.3,4.7c-7,3.1-11.6,10.1-11.6,18.6c0,3.9,0,2.3,0,10.9H162.9z"></path> <g> <polygon class="st5" points="110.2,373.9 106.3,379.3 113.3,393.3 120.2,382.4 "></polygon> <polygon class="st5" points="130.3,373.9 135,379.3 128,394.1 120.2,382.4 "></polygon> </g> <g> <rect x="173" y="349.1" class="st3" width="15.5" height="14"></rect> <rect x="202.5" y="349.1" class="st3" width="15.5" height="14"></rect> <rect x="232" y="349.1" class="st3" width="15.5" height="14"></rect> <rect x="173.8" y="320.4" class="st3" width="72.9" height="15.5"></rect> <path class="st3" d="M65.2,201.7l-14.7-3.9c1.6-5.4,3.1-10.1,4.7-15.5l14.7,4.7C67.5,192.4,66.7,197,65.2,201.7z M74.5,173.8 l-14-6.2c2.3-4.7,4.7-10.1,7-14.7l14,7C79.1,164.5,76.8,169.1,74.5,173.8z M88.4,147.4l-13.2-8.5c3.1-4.7,6.2-9.3,9.3-13.2L97,135 C93.9,138.9,91.5,143.5,88.4,147.4z M106.3,123.3l-11.6-10.1c3.9-3.9,7-7.8,10.9-11.6l10.9,10.9 C113.3,116.4,110.2,120.2,106.3,123.3z M128,103.2l-10.1-11.6c3.9-3.1,8.5-7,13.2-10.1l8.5,12.4C135.8,97,131.9,100.1,128,103.2z M152,86.1l-7.8-13.2c4.7-3.1,9.3-5.4,14-7.8l7,14C161.4,80.7,156.7,83,152,86.1z"></path> <path class="st3" d="M331.2,434.4l-6.2-14c4.7-2.3,9.3-3.9,13.2-6.2l7.8,14C340.6,430.5,335.9,432.9,331.2,434.4z M359.2,419.7 l-8.5-13.2c3.9-2.3,8.5-5.4,12.4-8.5l9.3,12.4C368.5,413.5,363.8,416.6,359.2,419.7z M384.8,399.5l-10.1-11.6 c3.9-3.1,7-7,10.9-10.1l11.6,10.9C392.5,392.5,388.7,396.4,384.8,399.5z M407.3,376.2l-12.4-10.1c3.1-3.9,6.2-7.8,9.3-11.6 l12.4,8.5C413.5,367.7,410.4,372.4,407.3,376.2z M425.1,349.9l-13.2-7.8c2.3-4.7,4.7-8.5,7-13.2l14,7 C430.5,340.6,428.2,345.2,425.1,349.9z M439.1,321.2l-14.7-5.4c1.6-4.7,3.1-9.3,4.7-14l14.7,4.7C443,311.1,441.4,315.7,439.1,321.2 z M448.4,290.1l-15.5-3.1c0.8-3.1,1.6-7,1.6-10.9l15.5,2.3C449.9,282.4,449.2,286.3,448.4,290.1z"></path> </g> <path class="st3" d="M443.5,181H224.4c-3.8,0-6.4-2.3-6.4-5.7V41.7c0-3.4,2.6-5.7,6.4-5.7h219.2c3.8,0,6.4,2.3,6.4,5.7v133.6 C449.9,178.2,446.7,181,443.5,181z M230.8,169.6h206.4V47.4H230.8L230.8,169.6L230.8,169.6z"></path> </svg> 