<?xml version="1.0" encoding="UTF-8"?> <!-- Generator: Adobe Illustrator 19.0.0, SVG Export Plug-In . SVG Version: 6.00 Build 0) --> <svg xmlns="http://www.w3.org/2000/svg" xmlns:xlink="http://www.w3.org/1999/xlink" id="Capa_1" x="0px" y="0px" viewBox="0 0 512 512" style="enable-background:new 0 0 512 512;" xml:space="preserve"> <g> <rect x="8" y="104" style="fill:#FFFFFF;" width="496" height="320"></rect> <rect x="8" y="8" style="fill:#FFFFFF;" width="496" height="96"></rect> </g> <g> <circle style="fill:#193651;" cx="73.6" cy="56" r="16.8"></circle> <circle style="fill:#193651;" cx="138.4" cy="56" r="16.8"></circle> <circle style="fill:#193651;" cx="203.2" cy="56" r="16.8"></circle> </g> <rect x="40" y="136" style="fill:#FDBF5E;" width="432" height="256"></rect> <g> <rect x="248" y="152.8" style="fill:#193651;" width="16" height="14.4"></rect> <rect x="380.8" y="284" style="fill:#193651;" width="14.4" height="16"></rect> <rect x="116.8" y="284" style="fill:#193651;" width="14.4" height="16"></rect> <rect x="342.082" y="190.314" transform="matrix(0.7073 -0.7069 0.7069 0.7073 -37.9573 304.955)" style="fill:#193651;" width="14.4" height="16"></rect> <rect x="155.462" y="191.186" transform="matrix(-0.7073 -0.7069 0.7069 -0.7073 136.9084 455.0575)" style="fill:#193651;" width="14.4" height="16"></rect> <rect x="198.491" y="161.967" transform="matrix(-0.3827 -0.9239 0.9239 -0.3827 127.3782 425.0444)" style="fill:#193651;" width="14.4" height="16"></rect> <rect x="371.011" y="233.374" transform="matrix(-0.9239 0.3827 -0.3827 -0.9239 820.0036 319.6372)" style="fill:#193651;" width="14.4" height="16"></rect> <rect x="125.83" y="335.134" transform="matrix(-0.3829 -0.9238 0.9238 -0.3829 -131.1725 597.0435)" style="fill:#193651;" width="16" height="14.4"></rect> <rect x="299.489" y="162.293" transform="matrix(0.3827 -0.9239 0.9239 0.3827 31.9923 388.4661)" style="fill:#193651;" width="14.4" height="16"></rect> <rect x="370.971" y="334.762" transform="matrix(-0.9239 -0.3827 0.3827 -0.9239 596.3822 804.1549)" style="fill:#193651;" width="14.4" height="16"></rect> <rect x="126.613" y="233.357" transform="matrix(-0.9239 -0.3826 0.3826 -0.9239 165.0994 515.5474)" style="fill:#193651;" width="14.4" height="16"></rect> </g> <g> <rect x="206.4" y="424" style="fill:#FFFFFF;" width="99.2" height="40"></rect> <path style="fill:#FFFFFF;" d="M284,464h-56.8v24c0,8.8,6.4,16,14.4,16h28.8c8,0,14.4-7.2,14.4-16v-24H284z"></path> <path style="fill:#FFFFFF;" d="M357.6,293.6c0-59.2-48-106.4-107.2-103.2c-50.4,2.4-92,43.2-96,94.4c-2.4,25.6,4.8,49.6,18.4,68.8 c16,23.2,28,22.4,32,51.2l1.6,19.2h99.2l0.8-8c4-29.6,16-38.4,32.8-63.2C351.2,336,357.6,316,357.6,293.6z"></path> </g> <line style="fill:none;stroke:#193651;stroke-width:2;stroke-miterlimit:10;" x1="188.8" y1="424" x2="323.2" y2="424"></line> <path style="fill:#193651;" d="M512,432V0H0v432h198.4v24h-9.6v16h9.6H220v16c0,13.6,9.6,24,22.4,24h28.8c12,0,22.4-10.4,22.4-24 v-16h21.6h9.6v-16h-9.6v-24H512z M276,488c0,4-2.4,8-6.4,8h-28.8c-3.2,0-6.4-4-6.4-8v-16h40.8v16H276z M214.4,456v-24h83.2v24H214.4 z M212.8,404c-3.2-21.6-10.4-28.8-19.2-38.4c-4-4-8.8-8.8-14.4-16.8c-12.8-18.4-19.2-40.8-16.8-64c4-47.2,42.4-84.8,88.8-87.2 c53.6-2.4,98.4,40.8,98.4,95.2c0,19.2-5.6,38.4-16.8,54.4c-4,5.6-7.2,10.4-10.4,14.4c-11.2,15.2-20.8,27.2-24,52.8v0.8h-84.8 L212.8,404z M16,16h480v80H16V16z M16,416V112h480v304H314.4c3.2-20,9.6-28.8,20.8-44c3.2-4.8,7.2-9.6,10.4-15.2 c12.8-18.4,20-40.8,20-63.2c0-63.2-52.8-114.4-115.2-111.2c-54.4,2.4-99.2,46.4-104,101.6c-2.4,26.4,4.8,52.8,20,74.4 c5.6,8,11.2,13.6,16,18.4c8,8,12.8,12.8,14.4,28.8l0.8,10.4L16,416L16,416z"></path> <polygon style="fill:#F16051;" points="271.2,224.8 223.2,288.8 255.2,288.8 245.6,327.2 292,268.8 257.6,266.4 "></polygon> <g> </g> <g> </g> <g> </g> <g> </g> <g> </g> <g> </g> <g> </g> <g> </g> <g> </g> <g> </g> <g> </g> <g> </g> <g> </g> <g> </g> <g> </g> </svg> 