<?xml version="1.0" encoding="UTF-8"?> <!-- Generator: Adobe Illustrator 19.0.0, SVG Export Plug-In . SVG Version: 6.00 Build 0) --> <svg xmlns="http://www.w3.org/2000/svg" xmlns:xlink="http://www.w3.org/1999/xlink" id="Capa_1" x="0px" y="0px" viewBox="0 0 505.698 505.698" style="enable-background:new 0 0 505.698 505.698;" xml:space="preserve"> <path style="fill:#FFFFFF;" d="M202.437,8.566L7.877,80.246v219.766c0,0,11.028,135.483,194.56,197.711 c182.745-62.228,194.56-197.711,194.56-197.711V80.246L202.437,8.566z"></path> <path style="fill:#183651;" d="M202.437,504.812c-0.788,0-1.575,0-2.363-0.788C14.178,441.797,0.788,306.314,0,300.012V80.246 c0-3.151,2.363-6.302,5.514-7.089l194.56-71.68c1.575-0.788,3.938-0.788,5.514,0l194.56,71.68c3.151,0.788,5.514,3.938,5.514,7.089 v219.766c-0.788,6.302-14.178,141.785-200.074,204.8C204.012,504.812,203.225,504.812,202.437,504.812z M15.754,85.76v214.252 c0.788,4.726,13.391,129.182,186.683,189.046C375.729,429.194,389.12,300.8,389.12,299.225V85.76L202.437,17.231L15.754,85.76z"></path> <path style="fill:#2AA0DA;" d="M202.437,42.437L39.385,102.302v195.348c1.575,12.603,18.905,112.64,163.052,165.415l0,0V42.437 L202.437,42.437z"></path> <path style="fill:#E1E6E8;" d="M202.437,42.437v421.415c144.148-52.775,161.477-154.388,163.052-165.415V102.302L202.437,42.437z"></path> <path style="fill:#FCBD5E;" d="M482.068,496.935H289.083c-8.665,0-15.754-7.089-15.754-15.754V339.397 c0-8.665,7.089-15.754,15.754-15.754h192.985c8.665,0,15.754,7.089,15.754,15.754v141.785 C497.822,489.846,490.732,496.935,482.068,496.935z"></path> <path style="fill:#183651;" d="M482.068,504.812H289.083c-12.603,0-23.631-10.24-23.631-23.631V339.397 c0-12.603,10.24-23.631,23.631-23.631h192.985c12.603,0,23.631,10.24,23.631,23.631v141.785 C505.698,494.572,495.458,504.812,482.068,504.812z M289.083,331.52c-3.938,0-7.877,3.151-7.877,7.877v141.785 c0,3.938,3.151,7.877,7.877,7.877h192.985c3.938,0,7.877-3.151,7.877-7.877V339.397c0-3.938-3.151-7.877-7.877-7.877H289.083z"></path> <g> <rect x="305.546" y="355.316" style="fill:#FFFFFF;" width="160.689" height="110.277"></rect> <path style="fill:#FFFFFF;" d="M322.166,323.643v-35.446c0-34.658,28.357-63.803,63.803-63.803s63.803,28.357,63.803,63.803v35.446 h31.508v-35.446c0-51.988-42.535-94.523-94.523-94.523s-94.523,42.535-94.523,94.523v35.446H322.166z"></path> </g> <path style="fill:#183651;" d="M480.492,331.52h-31.508c-4.726,0-7.877-3.151-7.877-7.877v-35.446 c0-30.72-25.206-55.926-55.926-55.926s-55.926,25.206-55.926,55.926v35.446c0,4.726-3.151,7.877-7.877,7.877h-31.508 c-4.726,0-7.877-3.151-7.877-7.877v-35.446c0-56.714,46.474-102.4,102.4-102.4s102.4,46.474,102.4,102.4v35.446 C488.369,328.369,485.218,331.52,480.492,331.52z M456.862,315.766h15.754v-27.569c0-48.049-39.385-86.646-86.646-86.646 c-48.049,0-86.646,39.385-86.646,86.646v27.569h15.754v-27.569c0-39.385,32.295-71.68,71.68-71.68s71.68,32.295,71.68,71.68v27.569 H456.862z"></path> <path style="fill:#173651;" d="M403.298,400.049c0-9.452-7.877-17.329-17.329-17.329c-9.452,0-17.329,7.877-17.329,17.329 c0,7.089,3.938,12.603,9.452,15.754l-3.151,22.843h22.055l-3.151-22.843C399.36,412.652,403.298,406.351,403.298,400.049z"></path> <g> <rect x="112.64" y="170.043" style="fill:#183651;" width="15.754" height="15.754"></rect> <rect x="112.64" y="223.606" style="fill:#183651;" width="15.754" height="15.754"></rect> <rect x="112.64" y="276.382" style="fill:#183651;" width="15.754" height="15.754"></rect> </g> <g> </g> <g> </g> <g> </g> <g> </g> <g> </g> <g> </g> <g> </g> <g> </g> <g> </g> <g> </g> <g> </g> <g> </g> <g> </g> <g> </g> <g> </g> </svg> 