<?xml version="1.0" encoding="UTF-8"?> <!-- Generator: Adobe Illustrator 19.0.0, SVG Export Plug-In . SVG Version: 6.00 Build 0) --> <svg xmlns="http://www.w3.org/2000/svg" xmlns:xlink="http://www.w3.org/1999/xlink" id="Capa_1" x="0px" y="0px" viewBox="0 0 505.801 505.801" style="enable-background:new 0 0 505.801 505.801;" xml:space="preserve"> <circle style="fill:#4FBF9F;" cx="255.3" cy="253.75" r="249"></circle> <rect x="201" y="235.85" style="fill:#FFFFFF;" width="113.3" height="258.3"></rect> <rect x="232" y="266.95" style="fill:#2EA2DB;" width="51.2" height="219.5"></rect> <path style="fill:#FDBF5E;" d="M329,39.65c-10.1-0.8-19.4,7.8-19.4,17.8v-13.2c0-10.1-7-18.6-17.1-19.4s-19.4,7.8-19.4,17.8v-13.1 c0-10.1-7.8-17.8-17.8-17.8l0,0c-10.1,0-17.8,7.8-17.8,17.8v14c0-10.1-8.5-18.6-19.4-17.8c-10.1,0.8-17.1,9.3-17.1,19.4v67.5 c0-10.1-8.5-18.6-19.4-17.8c-10.1,0.8-17.1,9.3-17.1,19.4v81.5c0,0,7.8,27.2,36.5,41.1h113.3c0,0,6.2-18.6,13.2-28.7 c11.6-15.5,17.8-34.1,17.8-53.5v-96.4C346.1,48.95,338.3,39.65,329,39.65z"></path> <path style="fill:#193651;" d="M329.8,31.05h-1.6c-4.7,0-8.5,1.6-12.4,3.1c-3.1-9.3-12.4-16.3-22.5-17.1h-1.6 c-3.9,0-7.8,1.6-11.6,3.1c-3.1-10.1-13.2-17.1-24-17.1c-10.9,0-20.2,7-24,17.1c-3.1-2.3-7-3.1-11.6-3.1h-1.6 c-14,0.8-24.8,13.2-24.8,27.2v44.2c-3.1-1.6-6.2-2.3-10.1-2.3h-1.6c-14,0.8-24.8,13.2-24.8,27.2v81.5c0,0.8,0,1.6,0,2.3 c0.7,0.7,8.5,27.3,35.7,43.2v253.9c0,4.7,3.1,7.8,7.8,7.8h114c3.9,0,7.8-3.9,7-7.8v-254.8c0.3-0.4,0.6-0.8,0.8-1.3 c1.6-5.4,7-19.4,12.4-26.4c12.4-17.1,19.4-37.2,19.4-58.2v-95.3C354.6,43.45,343.7,31.85,329.8,31.05z M306.5,486.45h-97.7v-242.8 h97.7V486.45z M338.3,153.65c0,17.1-6.2,34.9-16.3,48.9c-5.4,7.8-10.1,18.6-12.4,25.6H203.3c-21.7-11.6-28.7-30.3-29.5-33.4v-80.7 c0-6.2,3.9-11.6,10.1-11.6c5.4,0,10,4.6,10.1,10v58.3c0,4.7,3.1,7.8,7.8,7.8c4.7,0,7.8-3.1,7.8-7.8v-58v-0.1v-67.6 c0-6.2,3.9-11.6,10.1-11.6c5.4,0,10.1,4.7,10.1,10.1v87.7c0,4.7,3.1,7.8,7.8,7.8c3.9,0,7.8-3.1,7.8-7v-88.6v-14 c0-5.4,4.7-10.1,10.1-10.1c5.4,0,10.1,4.7,10.1,10.1v13.2c0,0.1,0,0.3,0,0.4c0,0.1,0,0.3,0,0.4v87.7c0,4.7,3.1,7.8,7.8,7.8 c4.7,0,7.8-3.1,7.8-7v-88.5c0-0.1,0-0.3,0-0.4c0-0.1,0-0.3,0-0.4c0-5.4,4.7-10.1,10.9-10.1c5.4,0.8,10.1,5.4,10.1,11.6v12.4 c0,0.1,0,0.3,0,0.4c0,0.1,0,0.3,0,0.4v73.7c0,4.7,3.1,7.8,7.8,7.8s7.8-3.1,7.8-7v-74.4c0-0.1,0-0.3,0-0.4c0-0.1,0-0.3,0-0.4 c0-5.4,4.7-10.1,10.9-10.1c5.4,0.8,10.1,5.4,10.1,11.6v95.5H338.3z"></path> <path style="fill:#E1E6E9;" d="M154.5,325.05v-77.6c0-7.8-6.2-14.7-14-15.5c-8.5-0.8-15.5,6.2-15.5,14.7v-10.9 c0-7.8-6.2-14.7-14-15.5c-8.5-0.8-15.5,6.2-15.5,14.7v-11.6c0-7.8-6.2-14.7-14.7-14.7c-7.8,0-14.7,6.2-14.7,14.7v11.6 c0-8.5-7-14.7-15.5-14.7c-7.8,0.8-14,7.8-14,15.5v55.2c0-8.5-7-14.7-15.5-14.7c-7.8,0.8-14,7.8-14,15.5v65.9c0,0,6.2,21.7,29.5,33.4 h92.3c0,0,4.7-15.5,10.9-23.3C149,356.15,154.5,340.65,154.5,325.05z"></path> <rect x="36.5" y="391.85" style="fill:#F16051;" width="92.3" height="102.4"></rect> <path style="fill:#193651;" d="M142,224.25h-1.6c-3.1,0-6.2,0-9.3,1.6c-3.9-7.8-10.9-12.4-19.4-13.2h-1.5c-3.1,0-5.4,0-8.5,1.6 c-3.1-7.8-10.9-13.2-20.2-13.2c-8.5,0-16.3,5.4-20.2,13.2c-3.1-0.8-6.2-1.6-9.3-1.6h-1.6c-11.6,0.8-20.9,10.9-20.9,23.3v33.4 c-2.3-0.8-4.7-0.8-7-0.8h-1.6C9.3,269.35,0,279.45,0,291.85v66.7c0,0.8,0,1.6,0,2.3c0,0.7,6.1,21.9,28.7,35.5v98 c0,4.7,3.1,7.8,7.8,7.8h92.3c4.7,0,7.8-3.9,7.8-7.8v-99.1c0.3-0.3,0.5-0.7,0.8-1c0.8-3.9,5.4-15.5,9.3-20.9 c10.9-14,16.3-31,16.3-48.1v-77.6C163,235.15,153.7,225.05,142,224.25z M121.1,486.45H44.3v-86.9h76.8V486.45z M147.5,325.05 c0,14-4.7,27.9-13.2,38.8c-4.7,6.2-7.8,14.7-10.1,20.2H38.9c-16.3-9.3-22.5-23.3-21.7-27.2v-65.2c0-3.9,3.1-7.8,7-7.8 c3.8,0,6.9,3.1,7,6.9v0.1v46.5c0,4.7,3.1,7.8,7.8,7.8s7.8-3.9,7.8-7.8v-46.3c0-0.1,0-0.1,0-0.2v-55.1c0-3.9,3.1-7.8,7-7.8 s6.9,3.1,7,6.9c0,0,0,0,0,0.1v63.6c0,4.7,3.1,7.8,7.8,7.8s7.8-3.1,7.8-7.8v-63.5c0-0.1,0-0.1,0-0.2v-11.6c0-3.9,3.1-7,7-7s7,3.1,7,7 v11.6c0,0.1,0,0.2,0,0.3v63.3c0,4.7,3.1,7.8,7.8,7.8s7.8-3.1,7.8-7.8v-63.6c0-0.1,0-0.1,0-0.1c0.1-3.8,3.1-6.8,7-6.8 c3.1,0,6.2,3.9,6.2,7.8v10.9c0,0.1,0,0.2,0,0.3v51.7c0,4.7,3.1,7.8,7.8,7.8c3.9,0,7.8-3.1,7.8-7.8v-52.2c0.1-3.8,3.2-6.8,7-6.8 c3.1,0,6.2,3.9,6.2,7.8v77.6H147.5z"></path> <rect x="67.6" y="422.85" style="fill:#FFFFFF;" width="30.3" height="63.6"></rect> <g> <rect x="249.9" y="326.65" style="fill:#193651;" width="15.5" height="15.5"></rect> <rect x="249.9" y="368.55" style="fill:#193651;" width="15.5" height="15.5"></rect> <rect x="249.9" y="410.45" style="fill:#193651;" width="15.5" height="15.5"></rect> </g> <path style="fill:#E1E6E9;" d="M497.3,325.05v-77.6c0-7.8-6.2-14.7-14-15.5c-8.5-0.8-15.5,6.2-15.5,14.7v-10.9 c0-7.8-6.2-14.7-14-15.5c-8.5-0.8-15.5,6.2-15.5,14.7v-11.6c0-7.8-6.2-14.7-14.7-14.7c-7.8,0-14.7,6.2-14.7,14.7v11.6 c0-8.5-7-14.7-15.5-14.7c-7.8,0.8-14,7.8-14,15.5v55.2c0-8.5-7-14.7-15.5-14.7c-7.8,0.8-14,7.8-14,15.5v65.9c0,0,6.2,21.7,29.5,33.4 h92.3c0,0,4.7-15.5,10.9-23.3C491.9,356.15,497.3,340.65,497.3,325.05z"></path> <rect x="379.4" y="391.85" style="fill:#F16051;" width="92.3" height="102.4"></rect> <path style="fill:#193651;" d="M484.9,224.25h-1.6c-3.1,0-6.2,0-9.3,1.6c-3.9-7.8-10.9-12.4-19.4-13.2H453c-3.1,0-5.4,0-8.5,1.6 c-3.1-7.8-10.9-13.2-20.2-13.2c-8.5,0-16.3,5.4-20.2,13.2c-3.1-0.8-6.2-1.6-9.3-1.6h-1.6c-11.6,0.8-20.9,10.9-20.9,23.3v33.4 c-2.3-0.8-4.7-0.8-7-0.8h-1.6c-11.6,0.8-20.9,10.9-20.9,23.3v66.7c0,0.8,0,1.6,0,2.3c0,0.7,6.1,21.9,28.7,35.5v98 c0,4.7,3.1,7.8,7.8,7.8h92.3c4.7,0,7.8-3.9,7.8-7.8v-99.1c0.3-0.3,0.5-0.7,0.8-1c0.8-3.9,5.4-15.5,9.3-20.9 c10.9-14,16.3-31,16.3-48.1v-77.6C505.9,235.15,496.6,225.05,484.9,224.25z M464,486.45h-76.8v-86.9H464V486.45z M490.4,325.05 c0,14-4.7,27.9-13.2,38.8c-4.7,6.2-7.8,14.7-10.1,20.2h-85.3c-16.3-9.3-22.5-23.3-21.7-27.2v-65.2c0-3.9,3.1-7.8,7-7.8 c3.8,0,6.9,3.1,7,6.9v0.1v46.5c0,4.7,3.1,7.8,7.8,7.8s7.8-3.9,7.8-7.8v-46.3c0-0.1,0-0.1,0-0.2v-55.1c0-3.9,3.1-7.8,7-7.8 s6.9,3.1,7,6.9c0,0,0,0,0,0.1v63.6c0,4.7,3.1,7.8,7.8,7.8s7.8-3.1,7.8-7.8v-63.5c0-0.1,0-0.1,0-0.2v-11.6c0-3.9,3.1-7,7-7s7,3.1,7,7 v11.6c0,0.1,0,0.2,0,0.3v63.3c0,4.7,3.1,7.8,7.8,7.8s7.8-3.1,7.8-7.8v-63.6c0-0.1,0-0.1,0-0.1c0.1-3.8,3.1-6.8,7-6.8 c3.1,0,6.2,3.9,6.2,7.8v10.9c0,0.1,0,0.2,0,0.3v51.7c0,4.7,3.1,7.8,7.8,7.8c3.9,0,7.8-3.1,7.8-7.8v-52.2c0.1-3.8,3.2-6.8,7-6.8 c3.1,0,6.2,3.9,6.2,7.8v77.6H490.4z"></path> <rect x="410.5" y="422.85" style="fill:#FFFFFF;" width="30.3" height="63.6"></rect> <g> </g> <g> </g> <g> </g> <g> </g> <g> </g> <g> </g> <g> </g> <g> </g> <g> </g> <g> </g> <g> </g> <g> </g> <g> </g> <g> </g> <g> </g> </svg> 