<?xml version="1.0" encoding="utf-8"?>
<!-- Generator: Adobe Illustrator 21.1.0, SVG Export Plug-In . SVG Version: 6.00 Build 0)  -->
<svg version="1.1" id="Слой_1" xmlns="http://www.w3.org/2000/svg" xmlns:xlink="http://www.w3.org/1999/xlink" x="0px" y="0px"
	 viewBox="0 0 765.3 211" style="enable-background:new 0 0 765.3 211;" xml:space="preserve">
<style type="text/css">
	.st0{fill:#8D81AC;}
	.st1{fill:#333333;}
	.st2{font-family:'Montserrat-Bold';}
	.st3{font-size:100px;}
	.st4{fill:#A393B9;}
</style>
<g>
	<g>
		<path class="st0" d="M271.3,107.8c0.1-2.1-0.7-3.9-2-5.3L249.9,83l0.2-44.7c-0.1-0.3-0.2-0.8-0.3-1.2c0-0.1,0-0.3-0.1-0.4
			c-0.1-0.2-0.2-0.5-0.2-0.7c-0.1-0.3-0.1-0.5-0.2-0.8c-0.1-0.1-0.2-0.3-0.2-0.4c-0.1-0.3-0.3-0.5-0.4-0.8l-0.2-0.3
			c-0.2-0.3-0.4-0.5-0.6-0.7c-0.1-0.1-0.2-0.2-0.3-0.3c-0.3-0.2-0.5-0.5-0.8-0.7c-0.2-0.1-0.3-0.2-0.5-0.3l-0.3-0.1
			c-0.1-0.1-0.3-0.2-0.5-0.3c-0.6-0.3-1.4-0.4-2.2-0.5h-0.4h-16.1c-1.8,0-3.5,0.7-4.8,2c-1.3,1.3-2,3-2,4.8c0,3.7,3.1,6.8,6.8,6.8
			h9.3v41.1c0,0.6,0,1.2,0.1,1.7c0.3,2.1,1.5,3.8,3.1,4.9l0.8,0.6l14.9,14.9l-16.6,16.6c-0.8,0.7-1.4,1.6-1.8,2.5
			c-0.2,0.4-0.2,0.7-0.3,1.1l-0.1,0.3c-0.1,0.5-0.1,1.2-0.1,1.8v41.7h-9.3c-3.8,0-6.8,2.9-6.8,6.6c0,1.8,0.7,3.5,2,4.7
			c1.3,1.3,3,2,4.8,2l16.2-0.1c0.9,0,1.7-0.2,2.5-0.5l0.9-0.5c0.1-0.1,0.3-0.1,0.4-0.2c0.2-0.2,0.5-0.4,0.8-0.7l0.3-0.3
			c0.2-0.2,0.4-0.5,0.6-0.8l0.2-0.2c0.2-0.3,0.3-0.6,0.4-0.8l0.1-0.3c0.1-0.2,0.1-0.5,0.2-0.7c0-0.2,0.1-0.4,0.2-0.6
			c0.1-0.2,0.1-0.5,0.2-0.7c0-0.1,0,0,0,0.1c0-0.5,0.2-0.9,0.3-1.3l-0.2-45.1l19.3-19.5C270.6,111.5,271.3,109.8,271.3,107.8z
			 M44.5,171.6h-9.3V130c0-0.6,0-1.3-0.1-1.8l-0.1-0.3c-0.1-0.3-0.2-0.7-0.3-1.1c-0.4-0.9-1-1.8-1.8-2.5l-16.6-16.6l14.9-14.9
			l0.8-0.6c1.6-1,2.7-2.7,3.1-4.9c0.1-0.5,0.1-1.1,0.1-1.8V44.4h9.3c3.8,0,6.8-3,6.8-6.8c0-1.8-0.7-3.5-2-4.8s-3-2-4.8-2H28.4H28
			c-0.8,0-1.6,0.2-2.2,0.5c-0.2,0.1-0.4,0.2-0.5,0.3l-0.3,0c-0.2,0.1-0.3,0.2-0.5,0.3c-0.3,0.2-0.6,0.4-0.8,0.7
			c-0.1,0.1-0.2,0.2-0.3,0.3c-0.2,0.2-0.4,0.5-0.6,0.7l-0.2,0.3c-0.1,0.2-0.3,0.5-0.4,0.8C22,34.8,22,35,21.9,35.1
			c-0.1,0.2-0.2,0.5-0.2,0.8c-0.1,0.2-0.1,0.5-0.2,0.7c0,0.1-0.1,0.3-0.1,0.4c0,0.5-0.1,0.9-0.3,1.2l0.2,44.7L2,102.5
			c-1.4,1.4-2.1,3.1-2,5.3c0,1.9,0.6,3.7,1.9,5l19.3,19.5l-0.1,45c0.1,0.3,0.2,0.8,0.3,1.3c0-0.1,0-0.2,0-0.1
			c0.1,0.2,0.1,0.5,0.2,0.7c0.1,0.2,0.1,0.4,0.2,0.6c0.1,0.2,0.1,0.5,0.2,0.7l0.1,0.3c0.1,0.3,0.3,0.6,0.4,0.8l0.2,0.2
			c0.2,0.3,0.4,0.6,0.6,0.8l0.3,0.3c0.3,0.3,0.6,0.5,0.8,0.7c0.1,0.1,0.3,0.2,0.4,0.2l0.9,0.5c0.8,0.3,1.7,0.5,2.5,0.5l16.2,0.1
			c1.8,0,3.6-0.7,4.8-2c1.3-1.3,2-2.9,2-4.7C51.4,174.6,48.4,171.6,44.5,171.6z"/>
	</g>
</g>
<text transform="matrix(1 0 0 1 338 93.4027)"><tspan x="0" y="0" class="st1 st2 st3">VOTO </tspan><tspan x="0" y="90" class="st0 st2 st3">DIGITAL</tspan></text>
<path class="st4" d="M73.6,102.2l-8.5-8.5l3.8-3.8l4.6,4.6l10.1-10.1l3.8,3.8L73.6,102.2z M76,71.7c-11.5,0-20.8,9.3-20.8,20.8
	s9.3,20.8,20.8,20.8c11.5,0,20.8-9.3,20.8-20.8S87.5,71.7,76,71.7z"/>
<path class="st4" d="M208.7,149.5c-0.5-2.2-0.5-5.5-0.5-9.6c0-12.9,0.2-32.4-14.7-55.7l-9-14c-1.6-2.5-3.9-4.3-6.9-4.9
	c-2.8-0.6-5.8-0.2-8.2,1.4c0,0-0.2,0-0.2,0.2c-1.4,0.9-2.5,2.2-3.5,3.6c-1.3-0.9-2.8-1.7-4.4-2.1c-3-0.6-6-0.2-8.5,1.6
	c-0.2,0-0.2,0.2-0.3,0.2c-1.9,1.3-3.3,3-4.1,5c-3.2-1.4-6.9-1.3-10.3,0.5c-0.2,0-0.3,0.2-0.5,0.2c-1.4,0.9-2.5,2.1-3.3,3.5
	l-14.5-22.9c-1.7-2.7-4.4-4.6-7.6-5.4c-3.2-0.6-6.5-0.2-9.2,1.6l-0.2,0.2h-0.2c-2.7,1.7-4.6,4.4-5.4,7.6c-0.6,3.2-0.2,6.5,1.6,9.2
	l24.3,38.2c-1.3,0.6-2.4,1.4-3.5,2.1c-0.6,0.3-1.1,0.8-1.7,1.1c-2.8,1.9-4.9,4.7-5.7,8.1s-0.2,6.8,1.7,9.6l8.5,13.4
	c0.2,0.2,0.3,0.5,0.5,0.6c10.3,14.7,22.9,18.3,31.4,20.8c2.4,0.6,4.4,1.3,5.8,1.9c0.3,0.2,0.5,0.2,0.8,0.2c3.9,0.9,5.2,2.8,7.3,6.5
	l0.8,1.3c0.6,0.9,1.7,1.6,2.8,1.6c0.6,0,1.3-0.2,1.7-0.5c1.6-0.9,2.1-3,1.1-4.6l-0.8-1.1c-2.4-3.9-4.9-7.9-11.5-9.5
	c-1.9-0.8-3.9-1.4-6.3-2.1c-8.5-2.5-20.4-6-29.7-20.5l-7.1-11.2c-0.9-1.4-1.1-3-0.8-4.7c0.3-1.6,1.3-3,2.7-3.9
	c0.6-0.5,1.3-0.8,1.9-1.3c1.1-0.8,2.8-1.9,3.2-2.1c0,0,0.2,0.2,0.6,0.8l9.9,15.6c0.6,0.9,1.7,1.6,2.8,1.6c0.6,0,1.3-0.2,1.7-0.5
	c1.6-0.9,2.1-3,0.9-4.6l-9.9-15.6l-27.9-44.4c-0.8-1.3-1.1-2.7-0.8-4.1c0.3-1.4,1.3-2.7,2.4-3.5c0,0,0.2,0,0.2-0.2h0.2
	c1.3-0.8,2.7-1.1,4.1-0.8c1.4,0.3,2.7,1.3,3.5,2.4l20,31.4l9.3,14.7c0.6,0.9,1.7,1.6,2.8,1.6c0.6,0,1.3-0.2,1.7-0.5
	c1.6-0.9,2.1-3,0.9-4.6l-9.3-14.7c-1.4-2.2-0.8-5,1.4-6.5c2.2-1.4,5-0.8,6.5,1.4l9.3,14.7c0.6,0.9,1.7,1.6,2.8,1.6
	c0.6,0,1.3-0.2,1.7-0.5c1.6-0.9,2.1-3,0.9-4.6L155,82c-0.6-1.1-0.9-2.4-0.6-3.5c0.3-1.3,0.9-2.2,2.1-3c1.1-0.6,2.4-0.9,3.5-0.6
	c1.3,0.3,2.2,0.9,3,2.1l3.2,4.9l6.3,9.8c0.6,0.9,1.7,1.6,2.8,1.6c0.6,0,1.3-0.2,1.7-0.5c1.6-0.9,2.1-3,0.9-4.6l-6.3-9.9
	c-0.6-0.9-0.8-2.2-0.6-3.3c0.3-1.1,0.9-2.1,1.9-2.7c0.9-0.6,2.2-0.8,3.3-0.6c1.1,0.3,2.1,0.9,2.7,1.9l9,14
	c13.9,21.8,13.7,39.9,13.6,52.1c0,4.6,0,8.4,0.6,11.2c0.3,1.6,1.7,2.5,3.2,2.5c0.3,0,0.5,0,0.8-0.2C208,153,209,151.3,208.7,149.5
	L208.7,149.5z"/>
</svg>
